<?xml version="1.0" encoding="UTF-8"?>
<svg version="1.1" xmlns="http://www.w3.org/2000/svg" width="96" height="96">
<path d="M0 0 C1.65322266 0.01740234 1.65322266 0.01740234 3.33984375 0.03515625 C4.99693359 0.04869141 4.99693359 0.04869141 6.6875 0.0625 C7.54214844 0.07410156 8.39679687 0.08570313 9.27734375 0.09765625 C9.93734375 1.41765625 10.59734375 2.73765625 11.27734375 4.09765625 C10.61734375 5.08765625 9.95734375 6.07765625 9.27734375 7.09765625 C10.0971875 7.43539063 10.91703125 7.773125 11.76171875 8.12109375 C12.839375 8.56710938 13.91703125 9.013125 15.02734375 9.47265625 C16.0946875 9.91351563 17.16203125 10.354375 18.26171875 10.80859375 C20.65290301 11.8307321 22.97117558 12.8997922 25.27734375 14.09765625 C25.60734375 13.76765625 25.93734375 13.43765625 26.27734375 13.09765625 C27.9435149 13.05701793 29.6112247 13.05493525 31.27734375 13.09765625 C32.42032936 17.6695987 32.42032936 17.6695987 31.65625 19.95703125 C31.12034493 22.98461866 32.18588534 24.44020676 33.65234375 27.09765625 C38.04486229 35.14651704 38.51832577 43.31542984 36.15234375 52.22265625 C32.81518848 62.00129726 26.97454296 68.78517405 17.7421875 73.3515625 C7.99181784 77.37797415 -1.35768068 77.45166992 -11.12109375 73.4140625 C-20.1742288 68.83312179 -25.7787974 62.49285722 -29.53125 53.06640625 C-32.42101881 43.34083949 -30.91983937 34.1660227 -26.72265625 25.09765625 C-26.06265625 24.10765625 -25.40265625 23.11765625 -24.72265625 22.09765625 C-24.73272969 20.06106729 -24.73272969 20.06106729 -25.16015625 17.97265625 C-25.34578125 16.69390625 -25.53140625 15.41515625 -25.72265625 14.09765625 C-24.72265625 13.09765625 -24.72265625 13.09765625 -22.41015625 13.03515625 C-21.52328125 13.05578125 -20.63640625 13.07640625 -19.72265625 13.09765625 C-15.90889885 13.09765625 -14.92369407 12.92554608 -11.78515625 11.22265625 C-8.81586243 9.65753315 -5.87086611 8.27823495 -2.72265625 7.09765625 C-3.38265625 6.43765625 -4.04265625 5.77765625 -4.72265625 5.09765625 C-4.15802421 1.37108481 -3.93926089 0.14129343 0 0 Z " fill="#F4F5F8" transform="translate(44.72265625,9.90234375)"/>
<path d="M0 0 C1.65322266 0.01740234 1.65322266 0.01740234 3.33984375 0.03515625 C4.99693359 0.04869141 4.99693359 0.04869141 6.6875 0.0625 C7.54214844 0.07410156 8.39679687 0.08570313 9.27734375 0.09765625 C9.93734375 1.41765625 10.59734375 2.73765625 11.27734375 4.09765625 C10.61734375 5.08765625 9.95734375 6.07765625 9.27734375 7.09765625 C10.0971875 7.43539063 10.91703125 7.773125 11.76171875 8.12109375 C12.839375 8.56710938 13.91703125 9.013125 15.02734375 9.47265625 C16.0946875 9.91351563 17.16203125 10.354375 18.26171875 10.80859375 C20.65290301 11.8307321 22.97117558 12.8997922 25.27734375 14.09765625 C25.60734375 13.76765625 25.93734375 13.43765625 26.27734375 13.09765625 C27.9435149 13.05701793 29.6112247 13.05493525 31.27734375 13.09765625 C32.42032936 17.6695987 32.42032936 17.6695987 31.65625 19.95703125 C31.12034493 22.98461866 32.18588534 24.44020676 33.65234375 27.09765625 C38.04486229 35.14651704 38.51832577 43.31542984 36.15234375 52.22265625 C32.81518848 62.00129726 26.97454296 68.78517405 17.7421875 73.3515625 C7.99181784 77.37797415 -1.35768068 77.45166992 -11.12109375 73.4140625 C-20.1742288 68.83312179 -25.7787974 62.49285722 -29.53125 53.06640625 C-32.42101881 43.34083949 -30.91983937 34.1660227 -26.72265625 25.09765625 C-26.06265625 24.10765625 -25.40265625 23.11765625 -24.72265625 22.09765625 C-24.73272969 20.06106729 -24.73272969 20.06106729 -25.16015625 17.97265625 C-25.34578125 16.69390625 -25.53140625 15.41515625 -25.72265625 14.09765625 C-24.72265625 13.09765625 -24.72265625 13.09765625 -22.41015625 13.03515625 C-21.52328125 13.05578125 -20.63640625 13.07640625 -19.72265625 13.09765625 C-15.90889885 13.09765625 -14.92369407 12.92554608 -11.78515625 11.22265625 C-8.81586243 9.65753315 -5.87086611 8.27823495 -2.72265625 7.09765625 C-3.38265625 6.43765625 -4.04265625 5.77765625 -4.72265625 5.09765625 C-4.15802421 1.37108481 -3.93926089 0.14129343 0 0 Z M-18.1171875 21.15625 C-24.05326142 28.33442212 -26.67045242 35.77397421 -26.171875 45.05859375 C-24.84144496 54.05924219 -19.84174817 61.17561434 -12.66796875 66.671875 C-5.77434263 71.21126277 1.12115717 71.88298371 9.27734375 71.09765625 C17.27547007 68.96653431 24.43709676 63.61213362 28.65234375 56.47265625 C32.55390081 48.36942235 33.73594108 41.23107732 31.15234375 32.41015625 C27.63207406 23.3255893 21.9000951 18.38677009 13.27734375 14.09765625 C2.49886899 10.50483133 -9.90041384 13.36885643 -18.1171875 21.15625 Z " fill="#454C55" transform="translate(44.72265625,9.90234375)"/>
<path d="M0 0 C0.68578125 0.44214844 1.3715625 0.88429688 2.078125 1.33984375 C3.439375 2.17515625 3.439375 2.17515625 4.828125 3.02734375 C12.06746608 10.46777764 14.48793684 18.340112 14.3515625 28.5 C13.56465678 36.67257796 8.85235287 42.79205619 3.078125 48.33984375 C-4.20301522 53.98644228 -10.91270788 55.09480189 -19.921875 54.33984375 C-28.01847363 53.106587 -33.55670954 48.31293263 -38.921875 42.33984375 C-43.89316531 34.7651672 -44.93467169 27.22129169 -43.921875 18.33984375 C-41.04068551 9.61395557 -36.66653275 3.56740765 -28.7109375 -0.90234375 C-19.11753088 -5.40410414 -9.17797539 -5.34395019 0 0 Z M-33.51171875 12.33984375 C-37.93114256 18.60783541 -37.73780739 24.82821872 -36.921875 32.33984375 C-34.62685755 38.69300364 -29.77550444 42.92171264 -24.16015625 46.4453125 C-18.57876117 48.6759224 -11.08193433 48.4081028 -5.4375 46.5 C-0.14601692 43.45432078 4.73837383 38.30978128 6.71484375 32.453125 C7.800806 26.13586071 8.31920733 19.56642459 4.953125 13.90234375 C0.50743594 7.90004088 -4.71296317 4.17023152 -11.921875 2.33984375 C-21.24657361 1.15306393 -27.77193922 5.39240375 -33.51171875 12.33984375 Z " fill="#8BCCB7" transform="translate(62.921875,26.66015625)"/>
<path d="M0 0 C0.99 0.33 1.98 0.66 3 1 C3 5.62 3 10.24 3 15 C3.99 15.33 4.98 15.66 6 16 C7.3260274 21.42465753 7.3260274 21.42465753 5.9375 23.875 C3.14003001 25.49933741 1.17634515 25.39704314 -2 25 C-3.9375 23.875 -3.9375 23.875 -5 22 C-4.6875 18.8125 -4.6875 18.8125 -4 16 C-3.01 15.67 -2.02 15.34 -1 15 C-1.01160156 14.00097656 -1.02320313 13.00195312 -1.03515625 11.97265625 C-1.04869141 10.03712891 -1.04869141 10.03712891 -1.0625 8.0625 C-1.07410156 6.77472656 -1.08570313 5.48695312 -1.09765625 4.16015625 C-1 1 -1 1 0 0 Z " fill="#50555E" transform="translate(47,32)"/>
</svg>
